<?xml version="1.0" standalone="no"?><svg xmlns="http://www.w3.org/2000/svg" viewBox="0 0 1440 320"><path fill="#2ecc72" fill-opacity="1" d="M0,288L17.1,282.7C34.3,277,69,267,103,234.7C137.1,203,171,149,206,117.3C240,85,274,75,309,101.3C342.9,128,377,192,411,218.7C445.7,245,480,235,514,197.3C548.6,160,583,96,617,80C651.4,64,686,96,720,112C754.3,128,789,128,823,122.7C857.1,117,891,107,926,112C960,117,994,139,1029,170.7C1062.9,203,1097,245,1131,256C1165.7,267,1200,245,1234,245.3C1268.6,245,1303,267,1337,266.7C1371.4,267,1406,245,1423,234.7L1440,224L1440,0L1422.9,0C1405.7,0,1371,0,1337,0C1302.9,0,1269,0,1234,0C1200,0,1166,0,1131,0C1097.1,0,1063,0,1029,0C994.3,0,960,0,926,0C891.4,0,857,0,823,0C788.6,0,754,0,720,0C685.7,0,651,0,617,0C582.9,0,549,0,514,0C480,0,446,0,411,0C377.1,0,343,0,309,0C274.3,0,240,0,206,0C171.4,0,137,0,103,0C68.6,0,34,0,17,0L0,0Z"></path></svg>